<svg width="12" height="7" viewBox="0 0 12 7" fill="none" xmlns="http://www.w3.org/2000/svg">
<path d="M5.981 4.92006L1.281 0.22006C1.13961 0.0833736 0.950193 0.00768721 0.753544 0.00930268C0.556894 0.0109182 0.368747 0.0897062 0.229625 0.228697C0.0905024 0.367688 0.011537 0.555762 0.00973608 0.752409C0.00793517 0.949057 0.0834429 1.13854 0.219996 1.28006L5.383 6.44306C5.4606 6.52096 5.55442 6.58079 5.65778 6.6183C5.76114 6.65581 5.8715 6.67007 5.981 6.66006C6.09082 6.67037 6.20156 6.65626 6.30529 6.61874C6.40902 6.58123 6.50317 6.52123 6.581 6.44306L11.743 1.28006C11.8755 1.13789 11.9476 0.949839 11.9442 0.755538C11.9407 0.561237 11.862 0.375851 11.7246 0.238438C11.5872 0.101025 11.4018 0.0223135 11.2075 0.0188853C11.0132 0.0154571 10.8252 0.0875803 10.683 0.22006L5.98 4.92006H5.981Z" fill="black"/>
</svg>
